Coordinates
version=1
nRows=12
nColumns=24
inDegrees=yes

Units are S.I. units (second, meters, Newtons, ...)
Angles are in degrees.

endheader
time	pelvis_tilt	pelvis_list	pelvis_rotation	pelvis_tx	pelvis_ty	pelvis_tz	hip_flexion_r	hip_adduction_r	hip_rotation_r	knee_angle_r	ankle_angle_r	subtalar_angle_r	mtp_angle_r	hip_flexion_l	hip_adduction_l	hip_rotation_l	knee_angle_l	ankle_angle_l	subtalar_angle_l	mtp_angle_l	lumbar_extension	lumbar_bending	lumbar_rotation
      1.90000000	     51.38685945	    -14.41185371	     -1.35647082	      0.43204239	      1.02106819	     -0.34901322	     25.26983537	      1.91142031	      7.14194976	    -28.79855863	      0.09765996	     43.16986622	      0.00000000	     21.61310085	    -26.05734122	      9.47760780	    -67.38574682	     24.83344509	     30.47846909	      0.00000000	      0.00000000	      0.00000000	      0.00000000
      1.91000000	     51.35558398	    -14.37752970	     -1.33944567	      0.43201705	      1.02118647	     -0.34911378	     25.26749031	      1.72899206	      7.33264921	    -29.70447088	      0.29032703	     43.68412098	      0.00000000	     21.62871987	    -25.98640428	      9.46968612	    -67.36189024	     24.78593849	     30.43686099	      0.00000000	      0.00000000	      0.00000000	      0.00000000
      1.92000000	     51.32959339	    -14.35018598	     -1.33255840	      0.43196754	      1.02130017	     -0.34923004	     25.29915155	      1.54247009	      7.48388525	    -30.64025894	      0.46864799	     44.17720516	      0.00000000	     21.63693215	    -25.91954933	      9.46221554	    -67.34405762	     24.75083304	     30.40354315	      0.00000000	      0.00000000	      0.00000000	      0.00000000
      1.93000000	     51.31089604	    -14.33855840	     -1.33505913	      0.43194886	      1.02138133	     -0.34937303	     25.35128726	      1.36649073	      7.60816786	    -31.57588999	      0.63174188	     44.63210281	      0.00000000	     21.63973992	    -25.86647583	      9.45791008	    -67.33804983	     24.73192614	     30.38142784	      0.00000000	      0.00000000	      0.00000000	      0.00000000
      1.94000000	     51.29896321	    -14.34750185	     -1.34494827	      0.43199637	      1.02141355	     -0.34954251	     25.40952002	      1.21257939	      7.71789108	    -32.47417529	      0.78032278	     45.03624130	      0.00000000	     21.64066926	    -25.83343411	      9.45979741	    -67.34631807	     24.73005869	     30.37143298	      0.00000000	      0.00000000	      0.00000000	      0.00000000
      1.95000000	     51.29077607	    -14.37667486	     -1.35991607	      0.43207931	      1.02140670	     -0.34971003	     25.46220815	      1.08587704	      7.82109461	    -33.29928089	      0.91585718	     45.38119079	      0.00000000	     21.64425304	    -25.82226291	      9.46985315	    -67.36644477	     24.74300269	     30.37268859	      0.00000000	      0.00000000	      0.00000000	      0.00000000
      1.96000000	     51.28209372	    -14.42179126	     -1.37856442	      0.43213417	      1.02138258	     -0.34984056	     25.50264704	      0.98402820	      7.91899827	    -34.02499639	      1.04014555	     45.66225226	      0.00000000	     21.65488724	    -25.83075971	      9.48790667	    -67.39216925	     24.76614308	     30.38299213	      0.00000000	      0.00000000	      0.00000000	      0.00000000
      1.97000000	     51.26914365	    -14.47714687	     -1.40095385	      0.43213194	      1.02135069	     -0.34992308	     25.52957520	      0.89867586	      8.00640263	    -34.63987205	      1.15502418	     45.87817088	      0.00000000	     21.67514825	    -25.85397397	      9.51143081	    -67.41657429	     24.79369845	     30.39937613	      0.00000000	      0.00000000	      0.00000000	      0.00000000
      1.98000000	     51.24995605	    -14.53738124	     -1.42796875	      0.43208851	      1.02130747	     -0.34996982	     25.54612904	      0.81868420	      8.07493198	    -35.14759473	      1.26195324	     46.03095317	      0.00000000	     21.70458122	    -25.88580832	      9.53643532	    -67.43535144	     24.82008251	     30.41866782	      0.00000000	      0.00000000	      0.00000000	      0.00000000
      1.99000000	     51.22498740	    -14.59772431	     -1.46008218	      0.43202784	      1.02125142	     -0.34999454	     25.55768317	      0.73379195	      8.11767737	    -35.56302268	      1.36151477	     46.12564456	      0.00000000	     21.73990793	    -25.92037376	      9.55899486	    -67.44810004	     24.84102327	     30.43794693	      0.00000000	      0.00000000	      0.00000000	      0.00000000
      2.00000000	     51.19692070	    -14.65368573	     -1.49636822	      0.43196168	      1.02118470	     -0.35000419	     25.56946560	      0.63749694	      8.13308126	    -35.90597147	      1.45304227	     46.16990044	      0.00000000	     21.77646530	    -25.95274126	      9.57646736	    -67.45728350	     24.85419739	     30.45485812	      0.00000000	      0.00000000	      0.00000000	      0.00000000
      2.01000000	     51.16980005	    -14.70141962	     -1.53421904	      0.43189589	      1.02110882	     -0.35000383	     25.58504880	      0.52810684	      8.12641721	    -36.19529011	      1.53464702	     46.17323806	      0.00000000	     21.80985162	    -25.97918246	      9.58779920	    -67.46605177	     24.85929853	     30.46778703	      0.00000000	      0.00000000	      0.00000000	      0.00000000
